<mxfile host="Electron" modified="2024-10-04T06:15:55.902Z" agent="Mozilla/5.0 (Windows NT 10.0; Win64; x64) AppleWebKit/537.36 (KHTML, like Gecko) draw.io/23.0.2 Chrome/120.0.6099.109 Electron/28.1.0 Safari/537.36" etag="75n5qQ4x3zCMS5QMTASV" version="23.0.2" type="device">
  <diagram name="Page-1" id="2fJcGlAFP10mFMeL1n3p">
    <mxGraphModel dx="3619" dy="1113" grid="0" gridSize="10" guides="1" tooltips="1" connect="1" arrows="1" fold="1" page="0" pageScale="1" pageWidth="827" pageHeight="1169" math="0" shadow="0">
      <root>
        <mxCell id="0" />
        <mxCell id="1" parent="0" />
        <mxCell id="TpdrdtEgg3zLDzQh49ds-96" value="" style="whiteSpace=wrap;html=1;aspect=fixed;fillColor=none;" parent="1" vertex="1">
          <mxGeometry x="-2201.68" y="-323.40999999999997" width="2024.83" height="2024.83" as="geometry" />
        </mxCell>
        <mxCell id="TC7yk_xJz1TRPmKOptp--14" value="Room ID Generted" style="rounded=1;whiteSpace=wrap;html=1;arcSize=40;fontColor=#000000;fillColor=#ffffc0;strokeColor=#ff0000;" parent="1" vertex="1">
          <mxGeometry x="-1292.04" y="1026" width="110" height="39" as="geometry" />
        </mxCell>
        <mxCell id="TC7yk_xJz1TRPmKOptp--6" value="Quiz Added to Records" style="rounded=1;whiteSpace=wrap;html=1;arcSize=40;fontColor=#000000;fillColor=#ffffc0;strokeColor=#ff0000;" parent="1" vertex="1">
          <mxGeometry x="-1403.77" y="1026" width="92" height="40" as="geometry" />
        </mxCell>
        <mxCell id="TC7yk_xJz1TRPmKOptp--18" value="" style="shape=line;html=1;strokeWidth=6;strokeColor=#ff0000;" parent="1" vertex="1">
          <mxGeometry x="-1393.77" y="973" width="293.77" height="10" as="geometry" />
        </mxCell>
        <mxCell id="TC7yk_xJz1TRPmKOptp--20" value="" style="edgeStyle=orthogonalEdgeStyle;html=1;verticalAlign=bottom;endArrow=open;endSize=8;strokeColor=#ff0000;rounded=0;exitX=0.125;exitY=0.744;exitDx=0;exitDy=0;exitPerimeter=0;entryX=0.5;entryY=0;entryDx=0;entryDy=0;" parent="1" source="TC7yk_xJz1TRPmKOptp--18" target="TC7yk_xJz1TRPmKOptp--6" edge="1">
          <mxGeometry relative="1" as="geometry">
            <mxPoint x="-1320.77" y="1017" as="targetPoint" />
          </mxGeometry>
        </mxCell>
        <mxCell id="TC7yk_xJz1TRPmKOptp--27" value="" style="html=1;verticalAlign=bottom;endArrow=open;endSize=8;strokeColor=#ff0000;rounded=0;exitX=0.536;exitY=0.763;exitDx=0;exitDy=0;exitPerimeter=0;entryX=0.5;entryY=0;entryDx=0;entryDy=0;edgeStyle=orthogonalEdgeStyle;" parent="1" source="TC7yk_xJz1TRPmKOptp--18" target="TC7yk_xJz1TRPmKOptp--14" edge="1">
          <mxGeometry relative="1" as="geometry">
            <mxPoint x="-1246.77" y="1026" as="targetPoint" />
            <mxPoint x="-1322.23" y="1111.3400000000001" as="sourcePoint" />
          </mxGeometry>
        </mxCell>
        <mxCell id="vBNEGQhEsHAN2P_JnBU3-4" value="" style="ellipse;html=1;shape=startState;fillColor=#000000;strokeColor=#ff0000;" parent="1" vertex="1">
          <mxGeometry x="-1387.27" y="-94.00000000000001" width="30" height="30" as="geometry" />
        </mxCell>
        <mxCell id="vBNEGQhEsHAN2P_JnBU3-5" value="" style="html=1;verticalAlign=bottom;endArrow=open;endSize=8;strokeColor=#ff0000;rounded=0;edgeStyle=orthogonalEdgeStyle;" parent="1" source="vBNEGQhEsHAN2P_JnBU3-4" edge="1">
          <mxGeometry relative="1" as="geometry">
            <mxPoint x="-1371.77" y="-33" as="targetPoint" />
          </mxGeometry>
        </mxCell>
        <mxCell id="vBNEGQhEsHAN2P_JnBU3-9" value="Edit Title &amp;amp; Question" style="rounded=1;whiteSpace=wrap;html=1;arcSize=43;fontColor=#000000;fillColor=#ffffc0;strokeColor=#ff0000;" parent="1" vertex="1">
          <mxGeometry x="-1535.6399999999999" y="751" width="84.12" height="29" as="geometry" />
        </mxCell>
        <mxCell id="TC7yk_xJz1TRPmKOptp--12" value="" style="ellipse;html=1;shape=endState;fillColor=#000000;strokeColor=#ff0000;" parent="1" vertex="1">
          <mxGeometry x="-1312" y="1154" width="30" height="30" as="geometry" />
        </mxCell>
        <mxCell id="bBVDjb1Iw1jjZOPMRiYV-5" value="" style="html=1;verticalAlign=bottom;endArrow=open;endSize=8;strokeColor=#ff0000;rounded=0;entryX=0.5;entryY=0;entryDx=0;entryDy=0;exitX=0.75;exitY=0.5;exitDx=0;exitDy=0;exitPerimeter=0;edgeStyle=orthogonalEdgeStyle;" parent="1" source="TpdrdtEgg3zLDzQh49ds-78" target="bBVDjb1Iw1jjZOPMRiYV-10" edge="1">
          <mxGeometry relative="1" as="geometry">
            <mxPoint x="-1407.25" y="646" as="targetPoint" />
            <mxPoint x="-1202.5" y="602" as="sourcePoint" />
          </mxGeometry>
        </mxCell>
        <mxCell id="bBVDjb1Iw1jjZOPMRiYV-6" value="Choice" style="rhombus;whiteSpace=wrap;html=1;fontColor=#000000;fillColor=#ffffc0;strokeColor=#ff0000;" parent="1" vertex="1">
          <mxGeometry x="-1533.58" y="669" width="80" height="40" as="geometry" />
        </mxCell>
        <mxCell id="bBVDjb1Iw1jjZOPMRiYV-10" value="Submit" style="rounded=1;whiteSpace=wrap;html=1;arcSize=43;fontColor=#000000;fillColor=#ffffc0;strokeColor=#ff0000;" parent="1" vertex="1">
          <mxGeometry x="-1297" y="887" width="96" height="27" as="geometry" />
        </mxCell>
        <mxCell id="TC7yk_xJz1TRPmKOptp--17" value="" style="edgeStyle=orthogonalEdgeStyle;html=1;verticalAlign=bottom;endArrow=open;endSize=8;strokeColor=#ff0000;rounded=0;exitX=0.472;exitY=0.914;exitDx=0;exitDy=0;exitPerimeter=0;entryX=0.5;entryY=0;entryDx=0;entryDy=0;" parent="1" source="5RerIEgN9e02NIq5gecx-10" edge="1">
          <mxGeometry relative="1" as="geometry">
            <mxPoint x="-1189.27" y="1421" as="targetPoint" />
            <mxPoint x="-1145.27" y="1424" as="sourcePoint" />
          </mxGeometry>
        </mxCell>
        <mxCell id="BYvYoB54RzEUqweGQ_cK-1" value="Display Create AI Button on Dashboard" style="rounded=1;whiteSpace=wrap;html=1;arcSize=40;fontColor=#000000;fillColor=#ffffc0;strokeColor=#ff0000;" parent="1" vertex="1">
          <mxGeometry x="-1432.27" y="49" width="120" height="40" as="geometry" />
        </mxCell>
        <mxCell id="5RerIEgN9e02NIq5gecx-5" value="Home" style="rounded=1;whiteSpace=wrap;html=1;arcSize=40;fontColor=#000000;fillColor=#ffffc0;strokeColor=#ff0000;" parent="1" vertex="1">
          <mxGeometry x="-989.77" y="1278" width="106" height="43" as="geometry" />
        </mxCell>
        <mxCell id="5RerIEgN9e02NIq5gecx-6" value="Copy to Clipboard" style="rounded=1;whiteSpace=wrap;html=1;arcSize=40;fontColor=#000000;fillColor=#ffffc0;strokeColor=#ff0000;" parent="1" vertex="1">
          <mxGeometry x="-1235.27" y="1284.5" width="92" height="40" as="geometry" />
        </mxCell>
        <mxCell id="5RerIEgN9e02NIq5gecx-7" value="" style="edgeStyle=orthogonalEdgeStyle;html=1;verticalAlign=bottom;endArrow=open;endSize=8;strokeColor=#ff0000;rounded=0;exitX=0.5;exitY=1;exitDx=0;exitDy=0;entryX=0.25;entryY=0.5;entryDx=0;entryDy=0;entryPerimeter=0;" parent="1" source="5RerIEgN9e02NIq5gecx-6" edge="1">
          <mxGeometry relative="1" as="geometry">
            <mxPoint x="-1189.77" y="1365.5" as="targetPoint" />
            <mxPoint x="-1267.52" y="1041.5" as="sourcePoint" />
          </mxGeometry>
        </mxCell>
        <mxCell id="5RerIEgN9e02NIq5gecx-8" value="" style="shape=line;html=1;strokeWidth=6;strokeColor=#ff0000;" parent="1" vertex="1">
          <mxGeometry x="-1355.77" y="1233" width="511" height="10" as="geometry" />
        </mxCell>
        <mxCell id="5RerIEgN9e02NIq5gecx-9" value="" style="edgeStyle=orthogonalEdgeStyle;html=1;verticalAlign=bottom;endArrow=open;endSize=8;strokeColor=#ff0000;rounded=0;exitX=0.25;exitY=0.5;exitDx=0;exitDy=0;exitPerimeter=0;entryX=0.5;entryY=0;entryDx=0;entryDy=0;" parent="1" target="5RerIEgN9e02NIq5gecx-6" edge="1">
          <mxGeometry relative="1" as="geometry">
            <mxPoint x="-1059.52" y="1272.5" as="targetPoint" />
            <mxPoint x="-1189.77" y="1233.5" as="sourcePoint" />
          </mxGeometry>
        </mxCell>
        <mxCell id="5RerIEgN9e02NIq5gecx-10" value="" style="shape=line;html=1;strokeWidth=6;strokeColor=#ff0000;" parent="1" vertex="1">
          <mxGeometry x="-1358.77" y="1365" width="358" height="10" as="geometry" />
        </mxCell>
        <mxCell id="5RerIEgN9e02NIq5gecx-11" value="View Result" style="rounded=1;whiteSpace=wrap;html=1;arcSize=40;fontColor=#000000;fillColor=#ffffc0;strokeColor=#ff0000;" parent="1" vertex="1">
          <mxGeometry x="-1108.77" y="1282" width="92" height="40" as="geometry" />
        </mxCell>
        <mxCell id="5RerIEgN9e02NIq5gecx-12" value="" style="edgeStyle=orthogonalEdgeStyle;html=1;verticalAlign=bottom;endArrow=open;endSize=8;strokeColor=#ff0000;rounded=0;exitX=0.25;exitY=0.5;exitDx=0;exitDy=0;exitPerimeter=0;entryX=0.5;entryY=0;entryDx=0;entryDy=0;" parent="1" target="5RerIEgN9e02NIq5gecx-11" edge="1">
          <mxGeometry relative="1" as="geometry">
            <mxPoint x="-933.02" y="1270" as="targetPoint" />
            <mxPoint x="-1063.02" y="1231" as="sourcePoint" />
          </mxGeometry>
        </mxCell>
        <mxCell id="5RerIEgN9e02NIq5gecx-13" value="" style="edgeStyle=orthogonalEdgeStyle;html=1;verticalAlign=bottom;endArrow=open;endSize=8;strokeColor=#ff0000;rounded=0;exitX=0.5;exitY=1;exitDx=0;exitDy=0;entryX=0.25;entryY=0.5;entryDx=0;entryDy=0;entryPerimeter=0;" parent="1" source="5RerIEgN9e02NIq5gecx-11" edge="1">
          <mxGeometry relative="1" as="geometry">
            <mxPoint x="-1063.02" y="1363" as="targetPoint" />
            <mxPoint x="-1141.02" y="1039" as="sourcePoint" />
          </mxGeometry>
        </mxCell>
        <mxCell id="5RerIEgN9e02NIq5gecx-14" value="View Room ID" style="rounded=1;whiteSpace=wrap;html=1;arcSize=40;fontColor=#000000;fillColor=#ffffc0;strokeColor=#ff0000;" parent="1" vertex="1">
          <mxGeometry x="-1347.77" y="1282" width="92" height="40" as="geometry" />
        </mxCell>
        <mxCell id="5RerIEgN9e02NIq5gecx-15" value="" style="html=1;verticalAlign=bottom;endArrow=open;endSize=8;strokeColor=#ff0000;rounded=0;exitX=0.111;exitY=0.21;exitDx=0;exitDy=0;exitPerimeter=0;entryX=0.5;entryY=0;entryDx=0;entryDy=0;edgeStyle=orthogonalEdgeStyle;" parent="1" target="5RerIEgN9e02NIq5gecx-14" edge="1">
          <mxGeometry relative="1" as="geometry">
            <mxPoint x="-1190.02" y="1277" as="targetPoint" />
            <mxPoint x="-1302.049" y="1230.1" as="sourcePoint" />
          </mxGeometry>
        </mxCell>
        <mxCell id="5RerIEgN9e02NIq5gecx-16" value="" style="edgeStyle=orthogonalEdgeStyle;html=1;verticalAlign=bottom;endArrow=open;endSize=8;strokeColor=#ff0000;rounded=0;exitX=0.5;exitY=1;exitDx=0;exitDy=0;" parent="1" source="5RerIEgN9e02NIq5gecx-14" edge="1">
          <mxGeometry relative="1" as="geometry">
            <mxPoint x="-1301.77" y="1363" as="targetPoint" />
            <mxPoint x="-1398.02" y="1046" as="sourcePoint" />
          </mxGeometry>
        </mxCell>
        <mxCell id="5RerIEgN9e02NIq5gecx-18" value="" style="edgeStyle=orthogonalEdgeStyle;html=1;verticalAlign=bottom;endArrow=open;endSize=8;strokeColor=#ff0000;rounded=0;entryX=0.5;entryY=0;entryDx=0;entryDy=0;" parent="1" edge="1">
          <mxGeometry relative="1" as="geometry">
            <mxPoint x="-936.9100000000003" y="1278" as="targetPoint" />
            <mxPoint x="-936.77" y="1235" as="sourcePoint" />
          </mxGeometry>
        </mxCell>
        <mxCell id="5RerIEgN9e02NIq5gecx-20" value="" style="edgeStyle=orthogonalEdgeStyle;html=1;verticalAlign=bottom;endArrow=open;endSize=8;strokeColor=#ff0000;rounded=0;exitX=0.896;exitY=0.752;exitDx=0;exitDy=0;exitPerimeter=0;entryX=0.445;entryY=0.219;entryDx=0;entryDy=0;entryPerimeter=0;" parent="1" source="TC7yk_xJz1TRPmKOptp--18" edge="1">
          <mxGeometry relative="1" as="geometry">
            <mxPoint x="-1131.375" y="1230.1899999999998" as="targetPoint" />
            <mxPoint x="-1346.77" y="990" as="sourcePoint" />
          </mxGeometry>
        </mxCell>
        <mxCell id="5RerIEgN9e02NIq5gecx-21" value="" style="shape=line;html=1;strokeWidth=6;strokeColor=#ff0000;" parent="1" vertex="1">
          <mxGeometry x="-1553" y="828" width="241" height="10" as="geometry" />
        </mxCell>
        <mxCell id="5RerIEgN9e02NIq5gecx-22" value="" style="edgeStyle=orthogonalEdgeStyle;html=1;verticalAlign=bottom;endArrow=open;endSize=8;strokeColor=#ff0000;rounded=0;exitX=0.5;exitY=1;exitDx=0;exitDy=0;entryX=0.75;entryY=0.5;entryDx=0;entryDy=0;entryPerimeter=0;" parent="1" source="TpdrdtEgg3zLDzQh49ds-70" target="5RerIEgN9e02NIq5gecx-21" edge="1">
          <mxGeometry relative="1" as="geometry">
            <mxPoint x="-1369" y="825" as="targetPoint" />
            <mxPoint x="-1369" y="794" as="sourcePoint" />
          </mxGeometry>
        </mxCell>
        <mxCell id="5RerIEgN9e02NIq5gecx-23" value="" style="edgeStyle=orthogonalEdgeStyle;html=1;verticalAlign=bottom;endArrow=open;endSize=8;strokeColor=#ff0000;rounded=0;exitX=0.5;exitY=1;exitDx=0;exitDy=0;entryX=0.25;entryY=0.5;entryDx=0;entryDy=0;entryPerimeter=0;" parent="1" source="vBNEGQhEsHAN2P_JnBU3-9" target="5RerIEgN9e02NIq5gecx-21" edge="1">
          <mxGeometry relative="1" as="geometry">
            <mxPoint x="-1491.49" y="842" as="targetPoint" />
            <mxPoint x="-1489" y="795" as="sourcePoint" />
          </mxGeometry>
        </mxCell>
        <mxCell id="5RerIEgN9e02NIq5gecx-26" value="" style="edgeStyle=orthogonalEdgeStyle;html=1;verticalAlign=bottom;endArrow=open;endSize=8;strokeColor=#ff0000;rounded=0;exitX=0.5;exitY=1;exitDx=0;exitDy=0;entryX=0.492;entryY=0.198;entryDx=0;entryDy=0;entryPerimeter=0;" parent="1" source="bBVDjb1Iw1jjZOPMRiYV-10" target="TC7yk_xJz1TRPmKOptp--18" edge="1">
          <mxGeometry relative="1" as="geometry">
            <mxPoint x="-1249" y="973" as="targetPoint" />
            <mxPoint x="-1346" y="1015" as="sourcePoint" />
          </mxGeometry>
        </mxCell>
        <mxCell id="5RerIEgN9e02NIq5gecx-30" value="" style="edgeStyle=orthogonalEdgeStyle;html=1;verticalAlign=bottom;endArrow=open;endSize=8;strokeColor=#ff0000;rounded=0;exitX=0.5;exitY=1;exitDx=0;exitDy=0;entryX=0.5;entryY=0;entryDx=0;entryDy=0;" parent="1" source="BYvYoB54RzEUqweGQ_cK-1" target="TpdrdtEgg3zLDzQh49ds-8" edge="1">
          <mxGeometry relative="1" as="geometry">
            <mxPoint x="-1372.23" y="129.57999999999998" as="targetPoint" />
            <mxPoint x="-1361.77" y="165" as="sourcePoint" />
          </mxGeometry>
        </mxCell>
        <mxCell id="5RerIEgN9e02NIq5gecx-31" value="" style="ellipse;html=1;shape=endState;fillColor=#000000;strokeColor=#ff0000;" parent="1" vertex="1">
          <mxGeometry x="-1205.27" y="1421" width="30" height="30" as="geometry" />
        </mxCell>
        <mxCell id="5RerIEgN9e02NIq5gecx-35" value="Login?" style="rhombus;whiteSpace=wrap;html=1;fontColor=#000000;fillColor=#ffffc0;strokeColor=#ff0000;" parent="1" vertex="1">
          <mxGeometry x="-1412.27" y="-28" width="80" height="40" as="geometry" />
        </mxCell>
        <mxCell id="5RerIEgN9e02NIq5gecx-36" value="Student" style="edgeStyle=orthogonalEdgeStyle;html=1;align=left;verticalAlign=bottom;endArrow=open;endSize=8;strokeColor=#ff0000;rounded=0;entryX=0.5;entryY=0;entryDx=0;entryDy=0;" parent="1" source="5RerIEgN9e02NIq5gecx-35" target="5RerIEgN9e02NIq5gecx-39" edge="1">
          <mxGeometry x="-1" relative="1" as="geometry">
            <mxPoint x="-785.5400000000001" y="-60.58" as="targetPoint" />
          </mxGeometry>
        </mxCell>
        <mxCell id="5RerIEgN9e02NIq5gecx-37" value="Teacher" style="edgeStyle=orthogonalEdgeStyle;html=1;align=left;verticalAlign=top;endArrow=open;endSize=8;strokeColor=#ff0000;rounded=0;entryX=0.5;entryY=0;entryDx=0;entryDy=0;" parent="1" source="5RerIEgN9e02NIq5gecx-35" target="BYvYoB54RzEUqweGQ_cK-1" edge="1">
          <mxGeometry x="-1" relative="1" as="geometry">
            <mxPoint x="-1373.77" y="44" as="targetPoint" />
          </mxGeometry>
        </mxCell>
        <mxCell id="5RerIEgN9e02NIq5gecx-39" value="Display Join Quiz Button on Dashboard" style="rounded=1;whiteSpace=wrap;html=1;arcSize=40;fontColor=#000000;fillColor=#ffffc0;strokeColor=#ff0000;" parent="1" vertex="1">
          <mxGeometry x="-1063" y="56.980000000000004" width="120" height="40" as="geometry" />
        </mxCell>
        <mxCell id="5RerIEgN9e02NIq5gecx-40" value="Enter Room ID" style="rounded=1;whiteSpace=wrap;html=1;arcSize=40;fontColor=#000000;fillColor=#ffffc0;strokeColor=#ff0000;" parent="1" vertex="1">
          <mxGeometry x="-1059.5" y="128.98000000000002" width="113" height="30" as="geometry" />
        </mxCell>
        <mxCell id="5RerIEgN9e02NIq5gecx-41" value="Quiz Displayed" style="rounded=1;whiteSpace=wrap;html=1;arcSize=40;fontColor=#000000;fillColor=#ffffc0;strokeColor=#ff0000;" parent="1" vertex="1">
          <mxGeometry x="-1059.5" y="192.57999999999998" width="113" height="30" as="geometry" />
        </mxCell>
        <mxCell id="5RerIEgN9e02NIq5gecx-42" value="" style="edgeStyle=orthogonalEdgeStyle;html=1;verticalAlign=bottom;endArrow=open;endSize=8;strokeColor=#ff0000;rounded=0;exitX=0.5;exitY=1;exitDx=0;exitDy=0;entryX=0.5;entryY=0;entryDx=0;entryDy=0;" parent="1" target="5RerIEgN9e02NIq5gecx-41" edge="1">
          <mxGeometry relative="1" as="geometry">
            <mxPoint x="-957" y="291.58" as="targetPoint" />
            <mxPoint x="-1003" y="160.5800000000001" as="sourcePoint" />
          </mxGeometry>
        </mxCell>
        <mxCell id="5RerIEgN9e02NIq5gecx-43" value="" style="edgeStyle=orthogonalEdgeStyle;html=1;verticalAlign=bottom;endArrow=open;endSize=8;strokeColor=#ff0000;rounded=0;exitX=0.5;exitY=1;exitDx=0;exitDy=0;entryX=0.5;entryY=0;entryDx=0;entryDy=0;" parent="1" source="5RerIEgN9e02NIq5gecx-39" target="5RerIEgN9e02NIq5gecx-40" edge="1">
          <mxGeometry relative="1" as="geometry">
            <mxPoint x="-967.0000000000001" y="151.98000000000002" as="targetPoint" />
            <mxPoint x="-967.0000000000001" y="118.98" as="sourcePoint" />
          </mxGeometry>
        </mxCell>
        <mxCell id="5RerIEgN9e02NIq5gecx-44" value="" style="edgeStyle=orthogonalEdgeStyle;html=1;verticalAlign=bottom;endArrow=open;endSize=8;strokeColor=#ff0000;rounded=0;exitX=0.5;exitY=1;exitDx=0;exitDy=0;entryX=0.5;entryY=0;entryDx=0;entryDy=0;" parent="1" source="5RerIEgN9e02NIq5gecx-41" target="5RerIEgN9e02NIq5gecx-45" edge="1">
          <mxGeometry relative="1" as="geometry">
            <mxPoint x="-957" y="353.58" as="targetPoint" />
            <mxPoint x="-1003" y="222.57999999999998" as="sourcePoint" />
          </mxGeometry>
        </mxCell>
        <mxCell id="5RerIEgN9e02NIq5gecx-45" value="Quiz Given" style="rounded=1;whiteSpace=wrap;html=1;arcSize=40;fontColor=#000000;fillColor=#ffffc0;strokeColor=#ff0000;" parent="1" vertex="1">
          <mxGeometry x="-1059.5" y="254.57999999999998" width="113" height="30" as="geometry" />
        </mxCell>
        <mxCell id="5RerIEgN9e02NIq5gecx-46" value="Score Displayed" style="rounded=1;whiteSpace=wrap;html=1;arcSize=40;fontColor=#000000;fillColor=#ffffc0;strokeColor=#ff0000;" parent="1" vertex="1">
          <mxGeometry x="-1059.5" y="319.58000000000004" width="113" height="30" as="geometry" />
        </mxCell>
        <mxCell id="5RerIEgN9e02NIq5gecx-47" value="" style="edgeStyle=orthogonalEdgeStyle;html=1;verticalAlign=bottom;endArrow=open;endSize=8;strokeColor=#ff0000;rounded=0;exitX=0.5;exitY=1;exitDx=0;exitDy=0;entryX=0.5;entryY=0;entryDx=0;entryDy=0;" parent="1" source="5RerIEgN9e02NIq5gecx-45" target="5RerIEgN9e02NIq5gecx-46" edge="1">
          <mxGeometry relative="1" as="geometry">
            <mxPoint x="-957" y="418.58" as="targetPoint" />
            <mxPoint x="-1003" y="287.58" as="sourcePoint" />
          </mxGeometry>
        </mxCell>
        <mxCell id="5RerIEgN9e02NIq5gecx-48" value="" style="edgeStyle=orthogonalEdgeStyle;html=1;verticalAlign=bottom;endArrow=open;endSize=8;strokeColor=#ff0000;rounded=0;exitX=0.5;exitY=1;exitDx=0;exitDy=0;entryX=0.5;entryY=0;entryDx=0;entryDy=0;" parent="1" source="5RerIEgN9e02NIq5gecx-46" target="5RerIEgN9e02NIq5gecx-49" edge="1">
          <mxGeometry relative="1" as="geometry">
            <mxPoint x="-1003.1799999999998" y="384.58" as="targetPoint" />
            <mxPoint x="-1003.1799999999998" y="349.58" as="sourcePoint" />
          </mxGeometry>
        </mxCell>
        <mxCell id="5RerIEgN9e02NIq5gecx-49" value="" style="ellipse;html=1;shape=endState;fillColor=#000000;strokeColor=#ff0000;" parent="1" vertex="1">
          <mxGeometry x="-1018" y="379.58" width="30" height="30" as="geometry" />
        </mxCell>
        <mxCell id="TpdrdtEgg3zLDzQh49ds-1" value="Select Subject" style="rounded=1;whiteSpace=wrap;html=1;arcSize=40;fontColor=#000000;fillColor=#ffffc0;strokeColor=#ff0000;" parent="1" vertex="1">
          <mxGeometry x="-1428.77" y="184.57999999999998" width="113" height="30" as="geometry" />
        </mxCell>
        <mxCell id="TpdrdtEgg3zLDzQh49ds-2" value="Select Difficulty Level" style="rounded=1;whiteSpace=wrap;html=1;arcSize=40;fontColor=#000000;fillColor=#ffffc0;strokeColor=#ff0000;" parent="1" vertex="1">
          <mxGeometry x="-1428.77" y="251.57999999999998" width="113" height="30" as="geometry" />
        </mxCell>
        <mxCell id="TpdrdtEgg3zLDzQh49ds-3" value="" style="edgeStyle=orthogonalEdgeStyle;html=1;verticalAlign=bottom;endArrow=open;endSize=8;strokeColor=#ff0000;rounded=0;exitX=0.5;exitY=1;exitDx=0;exitDy=0;entryX=0.5;entryY=0;entryDx=0;entryDy=0;" parent="1" source="TpdrdtEgg3zLDzQh49ds-1" target="TpdrdtEgg3zLDzQh49ds-2" edge="1">
          <mxGeometry relative="1" as="geometry">
            <mxPoint x="-1362.23" y="196.57999999999998" as="targetPoint" />
            <mxPoint x="-1362.23" y="155.57999999999998" as="sourcePoint" />
          </mxGeometry>
        </mxCell>
        <mxCell id="TpdrdtEgg3zLDzQh49ds-4" value="Select Quantity" style="rounded=1;whiteSpace=wrap;html=1;arcSize=40;fontColor=#000000;fillColor=#ffffc0;strokeColor=#ff0000;" parent="1" vertex="1">
          <mxGeometry x="-1428.77" y="317.58" width="113" height="30" as="geometry" />
        </mxCell>
        <mxCell id="TpdrdtEgg3zLDzQh49ds-5" value="Generate" style="rounded=1;whiteSpace=wrap;html=1;arcSize=40;fontColor=#000000;fillColor=#ffffc0;strokeColor=#ff0000;" parent="1" vertex="1">
          <mxGeometry x="-1428.77" y="379.58" width="113" height="30" as="geometry" />
        </mxCell>
        <mxCell id="TpdrdtEgg3zLDzQh49ds-6" value="" style="edgeStyle=orthogonalEdgeStyle;html=1;verticalAlign=bottom;endArrow=open;endSize=8;strokeColor=#ff0000;rounded=0;exitX=0.5;exitY=1;exitDx=0;exitDy=0;entryX=0.5;entryY=0;entryDx=0;entryDy=0;" parent="1" source="TpdrdtEgg3zLDzQh49ds-2" target="TpdrdtEgg3zLDzQh49ds-4" edge="1">
          <mxGeometry relative="1" as="geometry">
            <mxPoint x="-1362.23" y="267.58" as="targetPoint" />
            <mxPoint x="-1362.23" y="229.57999999999998" as="sourcePoint" />
          </mxGeometry>
        </mxCell>
        <mxCell id="TpdrdtEgg3zLDzQh49ds-7" value="" style="edgeStyle=orthogonalEdgeStyle;html=1;verticalAlign=bottom;endArrow=open;endSize=8;strokeColor=#ff0000;rounded=0;exitX=0.5;exitY=1;exitDx=0;exitDy=0;entryX=0.5;entryY=0;entryDx=0;entryDy=0;" parent="1" source="TpdrdtEgg3zLDzQh49ds-4" target="TpdrdtEgg3zLDzQh49ds-5" edge="1">
          <mxGeometry relative="1" as="geometry">
            <mxPoint x="-1362.23" y="327.58" as="targetPoint" />
            <mxPoint x="-1362.23" y="297.58" as="sourcePoint" />
          </mxGeometry>
        </mxCell>
        <mxCell id="TpdrdtEgg3zLDzQh49ds-8" value="Create AI Quiz" style="rounded=1;whiteSpace=wrap;html=1;arcSize=40;fontColor=#000000;fillColor=#ffffc0;strokeColor=#ff0000;" parent="1" vertex="1">
          <mxGeometry x="-1428.77" y="121.57999999999997" width="113" height="30" as="geometry" />
        </mxCell>
        <mxCell id="TpdrdtEgg3zLDzQh49ds-9" value="" style="edgeStyle=orthogonalEdgeStyle;html=1;verticalAlign=bottom;endArrow=open;endSize=8;strokeColor=#ff0000;rounded=0;exitX=0.5;exitY=1;exitDx=0;exitDy=0;entryX=0.5;entryY=0;entryDx=0;entryDy=0;" parent="1" source="TpdrdtEgg3zLDzQh49ds-8" target="TpdrdtEgg3zLDzQh49ds-1" edge="1">
          <mxGeometry relative="1" as="geometry">
            <mxPoint x="-1362.23" y="261.58" as="targetPoint" />
            <mxPoint x="-1362.23" y="224.57999999999998" as="sourcePoint" />
          </mxGeometry>
        </mxCell>
        <mxCell id="TpdrdtEgg3zLDzQh49ds-14" value="" style="edgeStyle=orthogonalEdgeStyle;html=1;verticalAlign=bottom;endArrow=open;endSize=8;strokeColor=#ff0000;rounded=0;exitX=0.5;exitY=1;exitDx=0;exitDy=0;entryX=0.5;entryY=0;entryDx=0;entryDy=0;" parent="1" source="TpdrdtEgg3zLDzQh49ds-5" target="TpdrdtEgg3zLDzQh49ds-15" edge="1">
          <mxGeometry relative="1" as="geometry">
            <mxPoint x="-1362.23" y="413" as="targetPoint" />
            <mxPoint x="-1372.2700000000002" y="419" as="sourcePoint" />
          </mxGeometry>
        </mxCell>
        <mxCell id="TpdrdtEgg3zLDzQh49ds-15" value="Quiz Generated Using AI-Model" style="rounded=1;whiteSpace=wrap;html=1;arcSize=40;fontColor=#000000;fillColor=#ffffc0;strokeColor=#ff0000;" parent="1" vertex="1">
          <mxGeometry x="-1428.77" y="452" width="113" height="30" as="geometry" />
        </mxCell>
        <mxCell id="TpdrdtEgg3zLDzQh49ds-16" value="" style="edgeStyle=orthogonalEdgeStyle;html=1;verticalAlign=bottom;endArrow=open;endSize=8;strokeColor=#ff0000;rounded=0;exitX=0.5;exitY=1;exitDx=0;exitDy=0;entryX=0.5;entryY=0;entryDx=0;entryDy=0;" parent="1" source="TpdrdtEgg3zLDzQh49ds-15" target="TpdrdtEgg3zLDzQh49ds-76" edge="1">
          <mxGeometry relative="1" as="geometry">
            <mxPoint x="-1371.7300000000002" y="541" as="targetPoint" />
            <mxPoint x="-1362.23" y="429" as="sourcePoint" />
          </mxGeometry>
        </mxCell>
        <mxCell id="TpdrdtEgg3zLDzQh49ds-64" value="" style="edgeStyle=orthogonalEdgeStyle;html=1;verticalAlign=bottom;endArrow=open;endSize=8;strokeColor=#ff0000;rounded=0;exitX=0;exitY=0.5;exitDx=0;exitDy=0;entryX=0.5;entryY=0;entryDx=0;entryDy=0;" parent="1" source="bBVDjb1Iw1jjZOPMRiYV-6" target="TpdrdtEgg3zLDzQh49ds-65" edge="1">
          <mxGeometry relative="1" as="geometry">
            <mxPoint x="-1894.29" y="734" as="targetPoint" />
            <mxPoint x="-2017.54" y="699" as="sourcePoint" />
          </mxGeometry>
        </mxCell>
        <mxCell id="TpdrdtEgg3zLDzQh49ds-65" value="Add More(One Question)" style="rounded=1;whiteSpace=wrap;html=1;arcSize=43;fontColor=#000000;fillColor=#ffffc0;strokeColor=#ff0000;" parent="1" vertex="1">
          <mxGeometry x="-1654" y="751" width="93" height="30" as="geometry" />
        </mxCell>
        <mxCell id="TpdrdtEgg3zLDzQh49ds-70" value="Delete Question" style="rounded=1;whiteSpace=wrap;html=1;arcSize=43;fontColor=#000000;fillColor=#ffffc0;strokeColor=#ff0000;" parent="1" vertex="1">
          <mxGeometry x="-1417.77" y="751" width="93" height="30" as="geometry" />
        </mxCell>
        <mxCell id="TpdrdtEgg3zLDzQh49ds-76" value="View Questions" style="rounded=1;whiteSpace=wrap;html=1;arcSize=43;fontColor=#000000;fillColor=#ffffc0;strokeColor=#ff0000;" parent="1" vertex="1">
          <mxGeometry x="-1418.77" y="512" width="93" height="30" as="geometry" />
        </mxCell>
        <mxCell id="TpdrdtEgg3zLDzQh49ds-77" value="" style="edgeStyle=orthogonalEdgeStyle;html=1;verticalAlign=bottom;endArrow=open;endSize=8;strokeColor=#ff0000;rounded=0;exitX=0.5;exitY=1;exitDx=0;exitDy=0;entryX=0.497;entryY=0.272;entryDx=0;entryDy=0;entryPerimeter=0;" parent="1" source="TpdrdtEgg3zLDzQh49ds-76" target="TpdrdtEgg3zLDzQh49ds-78" edge="1">
          <mxGeometry relative="1" as="geometry">
            <mxPoint x="-1586.5" y="595.49" as="targetPoint" />
            <mxPoint x="-1586.841" y="572" as="sourcePoint" />
          </mxGeometry>
        </mxCell>
        <mxCell id="TpdrdtEgg3zLDzQh49ds-78" value="" style="shape=line;html=1;strokeWidth=6;strokeColor=#ff0000;" parent="1" vertex="1">
          <mxGeometry x="-1615" y="584" width="487.46" height="10" as="geometry" />
        </mxCell>
        <mxCell id="TpdrdtEgg3zLDzQh49ds-79" value="" style="html=1;verticalAlign=bottom;endArrow=open;endSize=8;strokeColor=#ff0000;rounded=0;entryX=0.5;entryY=0;entryDx=0;entryDy=0;exitX=0.25;exitY=0.5;exitDx=0;exitDy=0;exitPerimeter=0;edgeStyle=orthogonalEdgeStyle;" parent="1" source="TpdrdtEgg3zLDzQh49ds-78" target="bBVDjb1Iw1jjZOPMRiYV-6" edge="1">
          <mxGeometry relative="1" as="geometry">
            <mxPoint x="-1191.5" y="679" as="targetPoint" />
            <mxPoint x="-1191.5" y="599" as="sourcePoint" />
          </mxGeometry>
        </mxCell>
        <mxCell id="TpdrdtEgg3zLDzQh49ds-86" value="" style="html=1;verticalAlign=bottom;endArrow=open;endSize=8;strokeColor=#ff0000;rounded=0;exitX=0.5;exitY=1;exitDx=0;exitDy=0;entryX=0.5;entryY=0;entryDx=0;entryDy=0;edgeStyle=orthogonalEdgeStyle;" parent="1" source="bBVDjb1Iw1jjZOPMRiYV-6" target="vBNEGQhEsHAN2P_JnBU3-9" edge="1">
          <mxGeometry relative="1" as="geometry">
            <mxPoint x="-1157" y="797" as="targetPoint" />
            <mxPoint x="-1156" y="752" as="sourcePoint" />
          </mxGeometry>
        </mxCell>
        <mxCell id="TpdrdtEgg3zLDzQh49ds-87" value="" style="html=1;verticalAlign=bottom;endArrow=open;endSize=8;strokeColor=#ff0000;rounded=0;exitX=1;exitY=0.5;exitDx=0;exitDy=0;entryX=0.5;entryY=0;entryDx=0;entryDy=0;edgeStyle=orthogonalEdgeStyle;" parent="1" source="bBVDjb1Iw1jjZOPMRiYV-6" target="TpdrdtEgg3zLDzQh49ds-70" edge="1">
          <mxGeometry relative="1" as="geometry">
            <mxPoint x="-1484" y="761" as="targetPoint" />
            <mxPoint x="-1484" y="719" as="sourcePoint" />
          </mxGeometry>
        </mxCell>
        <mxCell id="TpdrdtEgg3zLDzQh49ds-88" value="" style="edgeStyle=orthogonalEdgeStyle;html=1;verticalAlign=bottom;endArrow=open;endSize=8;strokeColor=#ff0000;rounded=0;exitX=0.461;exitY=1;exitDx=0;exitDy=0;entryX=0;entryY=0.5;entryDx=0;entryDy=0;exitPerimeter=0;" parent="1" source="5RerIEgN9e02NIq5gecx-21" target="bBVDjb1Iw1jjZOPMRiYV-10" edge="1">
          <mxGeometry relative="1" as="geometry">
            <mxPoint x="-1362" y="843" as="targetPoint" />
            <mxPoint x="-1361" y="791" as="sourcePoint" />
          </mxGeometry>
        </mxCell>
        <mxCell id="TpdrdtEgg3zLDzQh49ds-89" value="" style="shape=line;html=1;strokeWidth=6;strokeColor=#ff0000;" parent="1" vertex="1">
          <mxGeometry x="-1417.77" y="1115" width="241.77" height="10" as="geometry" />
        </mxCell>
        <mxCell id="TpdrdtEgg3zLDzQh49ds-90" value="" style="edgeStyle=orthogonalEdgeStyle;html=1;verticalAlign=bottom;endArrow=open;endSize=8;strokeColor=#ff0000;rounded=0;exitX=0.5;exitY=1;exitDx=0;exitDy=0;entryX=0.75;entryY=0.5;entryDx=0;entryDy=0;entryPerimeter=0;" parent="1" source="TC7yk_xJz1TRPmKOptp--14" target="TpdrdtEgg3zLDzQh49ds-89" edge="1">
          <mxGeometry relative="1" as="geometry">
            <mxPoint x="-1232.27" y="1112" as="targetPoint" />
            <mxPoint x="-1234.27" y="1068" as="sourcePoint" />
          </mxGeometry>
        </mxCell>
        <mxCell id="TpdrdtEgg3zLDzQh49ds-91" value="" style="edgeStyle=orthogonalEdgeStyle;html=1;verticalAlign=bottom;endArrow=open;endSize=8;strokeColor=#ff0000;rounded=0;exitX=0.5;exitY=1;exitDx=0;exitDy=0;entryX=0.25;entryY=0.5;entryDx=0;entryDy=0;entryPerimeter=0;" parent="1" target="TpdrdtEgg3zLDzQh49ds-89" edge="1">
          <mxGeometry relative="1" as="geometry">
            <mxPoint x="-1354.76" y="1129" as="targetPoint" />
            <mxPoint x="-1357.27" y="1066" as="sourcePoint" />
          </mxGeometry>
        </mxCell>
        <mxCell id="TpdrdtEgg3zLDzQh49ds-92" value="" style="edgeStyle=orthogonalEdgeStyle;html=1;verticalAlign=bottom;endArrow=open;endSize=8;strokeColor=#ff0000;rounded=0;entryX=0.502;entryY=0.042;entryDx=0;entryDy=0;entryPerimeter=0;exitX=0.497;exitY=0.79;exitDx=0;exitDy=0;exitPerimeter=0;" parent="1" source="TpdrdtEgg3zLDzQh49ds-89" target="TC7yk_xJz1TRPmKOptp--12" edge="1">
          <mxGeometry relative="1" as="geometry">
            <mxPoint x="-1300.02" y="1129" as="targetPoint" />
            <mxPoint x="-1295.95" y="1130" as="sourcePoint" />
          </mxGeometry>
        </mxCell>
        <mxCell id="TpdrdtEgg3zLDzQh49ds-94" value="" style="edgeStyle=orthogonalEdgeStyle;html=1;verticalAlign=bottom;endArrow=open;endSize=8;strokeColor=#ff0000;rounded=0;exitX=0.5;exitY=1;exitDx=0;exitDy=0;entryX=0;entryY=0.5;entryDx=0;entryDy=0;" parent="1" source="TpdrdtEgg3zLDzQh49ds-65" target="TpdrdtEgg3zLDzQh49ds-15" edge="1">
          <mxGeometry relative="1" as="geometry">
            <mxPoint x="-1597" y="761" as="targetPoint" />
            <mxPoint x="-1524" y="699" as="sourcePoint" />
            <Array as="points">
              <mxPoint x="-1607" y="825" />
              <mxPoint x="-1693" y="825" />
              <mxPoint x="-1693" y="467" />
            </Array>
          </mxGeometry>
        </mxCell>
        <mxCell id="TpdrdtEgg3zLDzQh49ds-95" value="" style="edgeStyle=orthogonalEdgeStyle;html=1;verticalAlign=bottom;endArrow=open;endSize=8;strokeColor=#ff0000;rounded=0;exitX=0.5;exitY=1;exitDx=0;exitDy=0;entryX=0;entryY=0.5;entryDx=0;entryDy=0;" parent="1" source="5RerIEgN9e02NIq5gecx-5" target="BYvYoB54RzEUqweGQ_cK-1" edge="1">
          <mxGeometry relative="1" as="geometry">
            <mxPoint x="-1121.375" y="1240.1899999999998" as="targetPoint" />
            <mxPoint x="-936.77" y="1432" as="sourcePoint" />
            <Array as="points">
              <mxPoint x="-937" y="1542" />
              <mxPoint x="-1879" y="1542" />
              <mxPoint x="-1879" y="69" />
            </Array>
          </mxGeometry>
        </mxCell>
      </root>
    </mxGraphModel>
  </diagram>
</mxfile>
